<mxfile host="app.diagrams.net" modified="2021-09-28T23:03:45.388Z" agent="5.0 (Windows NT 10.0; Win64; x64) AppleWebKit/537.36 (KHTML, like Gecko) Chrome/93.0.4577.82 Safari/537.36" etag="32zct0lCj-fOvDIsbqVx" version="15.3.7" type="github">
  <diagram id="C5RBs43oDa-KdzZeNtuy" name="Page-1">
    <mxGraphModel dx="1422" dy="737" grid="1" gridSize="10" guides="1" tooltips="1" connect="1" arrows="1" fold="1" page="1" pageScale="1" pageWidth="827" pageHeight="1169" math="0" shadow="0">
      <root>
        <mxCell id="WIyWlLk6GJQsqaUBKTNV-0" />
        <mxCell id="WIyWlLk6GJQsqaUBKTNV-1" parent="WIyWlLk6GJQsqaUBKTNV-0" />
        <mxCell id="WIyWlLk6GJQsqaUBKTNV-2" value="" style="rounded=0;html=1;jettySize=auto;orthogonalLoop=1;fontSize=11;endArrow=block;endFill=0;endSize=8;strokeWidth=1;shadow=0;labelBackgroundColor=none;edgeStyle=orthogonalEdgeStyle;" parent="WIyWlLk6GJQsqaUBKTNV-1" source="WIyWlLk6GJQsqaUBKTNV-3" target="WIyWlLk6GJQsqaUBKTNV-6" edge="1">
          <mxGeometry relative="1" as="geometry" />
        </mxCell>
        <mxCell id="j2ROZdcInR7qGBDN1FA_-23" style="edgeStyle=orthogonalEdgeStyle;rounded=0;orthogonalLoop=1;jettySize=auto;html=1;exitX=1;exitY=0.5;exitDx=0;exitDy=0;" edge="1" parent="WIyWlLk6GJQsqaUBKTNV-1" source="WIyWlLk6GJQsqaUBKTNV-3" target="j2ROZdcInR7qGBDN1FA_-22">
          <mxGeometry relative="1" as="geometry" />
        </mxCell>
        <mxCell id="WIyWlLk6GJQsqaUBKTNV-3" value="GitHub Action" style="rounded=1;whiteSpace=wrap;html=1;fontSize=12;glass=0;strokeWidth=1;shadow=0;" parent="WIyWlLk6GJQsqaUBKTNV-1" vertex="1">
          <mxGeometry x="354" y="190" width="120" height="40" as="geometry" />
        </mxCell>
        <mxCell id="j2ROZdcInR7qGBDN1FA_-5" value="" style="edgeStyle=orthogonalEdgeStyle;rounded=0;orthogonalLoop=1;jettySize=auto;html=1;" edge="1" parent="WIyWlLk6GJQsqaUBKTNV-1" source="WIyWlLk6GJQsqaUBKTNV-6" target="j2ROZdcInR7qGBDN1FA_-0">
          <mxGeometry relative="1" as="geometry" />
        </mxCell>
        <mxCell id="WIyWlLk6GJQsqaUBKTNV-6" value="WebHook" style="rhombus;whiteSpace=wrap;html=1;shadow=0;fontFamily=Helvetica;fontSize=12;align=center;strokeWidth=1;spacing=6;spacingTop=-4;" parent="WIyWlLk6GJQsqaUBKTNV-1" vertex="1">
          <mxGeometry x="364" y="280" width="100" height="80" as="geometry" />
        </mxCell>
        <mxCell id="j2ROZdcInR7qGBDN1FA_-9" value="" style="edgeStyle=orthogonalEdgeStyle;rounded=0;orthogonalLoop=1;jettySize=auto;html=1;" edge="1" parent="WIyWlLk6GJQsqaUBKTNV-1" source="j2ROZdcInR7qGBDN1FA_-0" target="j2ROZdcInR7qGBDN1FA_-8">
          <mxGeometry relative="1" as="geometry" />
        </mxCell>
        <mxCell id="j2ROZdcInR7qGBDN1FA_-0" value="Discord API" style="whiteSpace=wrap;html=1;rounded=1;shadow=0;strokeWidth=1;glass=0;" vertex="1" parent="WIyWlLk6GJQsqaUBKTNV-1">
          <mxGeometry x="359" y="400" width="110" height="40" as="geometry" />
        </mxCell>
        <mxCell id="j2ROZdcInR7qGBDN1FA_-3" value="" style="edgeStyle=orthogonalEdgeStyle;rounded=0;orthogonalLoop=1;jettySize=auto;html=1;" edge="1" parent="WIyWlLk6GJQsqaUBKTNV-1" source="j2ROZdcInR7qGBDN1FA_-2" target="WIyWlLk6GJQsqaUBKTNV-3">
          <mxGeometry relative="1" as="geometry" />
        </mxCell>
        <mxCell id="j2ROZdcInR7qGBDN1FA_-2" value="GitHub Bot" style="rounded=1;whiteSpace=wrap;html=1;" vertex="1" parent="WIyWlLk6GJQsqaUBKTNV-1">
          <mxGeometry x="349" y="110" width="130" height="40" as="geometry" />
        </mxCell>
        <mxCell id="j2ROZdcInR7qGBDN1FA_-8" value="Notification send to Discord" style="whiteSpace=wrap;html=1;rounded=1;shadow=0;strokeWidth=1;glass=0;" vertex="1" parent="WIyWlLk6GJQsqaUBKTNV-1">
          <mxGeometry x="354" y="480" width="120" height="50" as="geometry" />
        </mxCell>
        <mxCell id="j2ROZdcInR7qGBDN1FA_-10" value="Research Result" style="whiteSpace=wrap;html=1;rounded=1;shadow=0;strokeWidth=1;glass=0;" vertex="1" parent="WIyWlLk6GJQsqaUBKTNV-1">
          <mxGeometry x="583" y="490" width="110" height="40" as="geometry" />
        </mxCell>
        <mxCell id="j2ROZdcInR7qGBDN1FA_-12" value="User Data" style="text;html=1;strokeColor=none;fillColor=none;align=center;verticalAlign=middle;whiteSpace=wrap;rounded=0;" vertex="1" parent="WIyWlLk6GJQsqaUBKTNV-1">
          <mxGeometry x="490" y="180" width="80" height="20" as="geometry" />
        </mxCell>
        <mxCell id="j2ROZdcInR7qGBDN1FA_-26" style="edgeStyle=orthogonalEdgeStyle;rounded=0;orthogonalLoop=1;jettySize=auto;html=1;" edge="1" parent="WIyWlLk6GJQsqaUBKTNV-1" source="j2ROZdcInR7qGBDN1FA_-13" target="j2ROZdcInR7qGBDN1FA_-10">
          <mxGeometry relative="1" as="geometry" />
        </mxCell>
        <mxCell id="j2ROZdcInR7qGBDN1FA_-13" value="Data Analysis" style="whiteSpace=wrap;html=1;rounded=1;shadow=0;strokeWidth=1;glass=0;" vertex="1" parent="WIyWlLk6GJQsqaUBKTNV-1">
          <mxGeometry x="577" y="400" width="122" height="40" as="geometry" />
        </mxCell>
        <mxCell id="j2ROZdcInR7qGBDN1FA_-20" style="edgeStyle=orthogonalEdgeStyle;rounded=0;orthogonalLoop=1;jettySize=auto;html=1;" edge="1" parent="WIyWlLk6GJQsqaUBKTNV-1" source="j2ROZdcInR7qGBDN1FA_-15" target="j2ROZdcInR7qGBDN1FA_-13">
          <mxGeometry relative="1" as="geometry" />
        </mxCell>
        <mxCell id="j2ROZdcInR7qGBDN1FA_-15" value="Control Groups" style="shape=parallelogram;perimeter=parallelogramPerimeter;whiteSpace=wrap;html=1;fixedSize=1;" vertex="1" parent="WIyWlLk6GJQsqaUBKTNV-1">
          <mxGeometry x="510" y="290" width="110" height="40" as="geometry" />
        </mxCell>
        <mxCell id="j2ROZdcInR7qGBDN1FA_-21" style="edgeStyle=orthogonalEdgeStyle;rounded=0;orthogonalLoop=1;jettySize=auto;html=1;" edge="1" parent="WIyWlLk6GJQsqaUBKTNV-1" source="j2ROZdcInR7qGBDN1FA_-17">
          <mxGeometry relative="1" as="geometry">
            <mxPoint x="638" y="400" as="targetPoint" />
            <Array as="points">
              <mxPoint x="695" y="365" />
              <mxPoint x="638" y="365" />
            </Array>
          </mxGeometry>
        </mxCell>
        <mxCell id="j2ROZdcInR7qGBDN1FA_-17" value="Experimental Groups" style="shape=parallelogram;perimeter=parallelogramPerimeter;whiteSpace=wrap;html=1;fixedSize=1;" vertex="1" parent="WIyWlLk6GJQsqaUBKTNV-1">
          <mxGeometry x="640" y="290" width="110" height="40" as="geometry" />
        </mxCell>
        <mxCell id="j2ROZdcInR7qGBDN1FA_-24" style="edgeStyle=orthogonalEdgeStyle;rounded=0;orthogonalLoop=1;jettySize=auto;html=1;exitX=0.5;exitY=1;exitDx=0;exitDy=0;entryX=0.5;entryY=0;entryDx=0;entryDy=0;" edge="1" parent="WIyWlLk6GJQsqaUBKTNV-1" source="j2ROZdcInR7qGBDN1FA_-22" target="j2ROZdcInR7qGBDN1FA_-15">
          <mxGeometry relative="1" as="geometry" />
        </mxCell>
        <mxCell id="j2ROZdcInR7qGBDN1FA_-25" style="edgeStyle=orthogonalEdgeStyle;rounded=0;orthogonalLoop=1;jettySize=auto;html=1;exitX=0.5;exitY=1;exitDx=0;exitDy=0;entryX=0.5;entryY=0;entryDx=0;entryDy=0;" edge="1" parent="WIyWlLk6GJQsqaUBKTNV-1" source="j2ROZdcInR7qGBDN1FA_-22" target="j2ROZdcInR7qGBDN1FA_-17">
          <mxGeometry relative="1" as="geometry" />
        </mxCell>
        <mxCell id="j2ROZdcInR7qGBDN1FA_-22" value="&lt;span&gt;Firebase&lt;/span&gt;" style="shape=datastore;whiteSpace=wrap;html=1;" vertex="1" parent="WIyWlLk6GJQsqaUBKTNV-1">
          <mxGeometry x="600" y="180" width="60" height="60" as="geometry" />
        </mxCell>
      </root>
    </mxGraphModel>
  </diagram>
</mxfile>
